<svg width="283" height="283" viewBox="0 0 283 283" fill="none" xmlns="http://www.w3.org/2000/svg">
<circle cx="141.255" cy="141.255" r="71" fill="#7D7FAB"/>
<path d="M103.038 103.415L102.719 103.14L97.8585 108.762L98.1771 109.038C99.3051 107.825 100.413 107.51 101.505 108.455L113.57 118.885C114.662 119.83 114.511 120.971 113.474 122.263L113.792 122.538L118.653 116.916L118.335 116.64C117.207 117.853 116.138 118.122 115.046 117.178L102.981 106.747C101.889 105.803 102.001 104.707 103.038 103.415Z" fill="#26190C"/>
<path d="M142.152 106.209C140.247 106.655 138.265 104.522 136.15 102.081C133.905 99.4843 133.107 98.7129 132.157 98.7494C135.633 97.2263 136.673 94.6658 135.954 91.5892C135.331 88.9228 132.151 87.3484 128.371 88.2318L119.493 90.3067L119.588 90.7169C121.807 90.2912 122.446 89.9872 122.741 91.2471L126.575 107.656C126.904 109.062 126.11 109.897 124.512 110.332L124.608 110.742L131.846 109.051L131.75 108.64C130.125 108.958 129.102 108.549 128.773 107.142L127.143 100.168L129.429 99.6343C131.099 99.244 131.544 100.222 134.844 103.9C136.559 105.817 138.468 107.503 139.845 107.181L141.954 106.688L142.951 106.455L142.913 106.031L142.152 106.209ZM126.767 98.5569L125.02 91.0852C124.685 89.6494 125.616 89.401 128.091 88.8844C130.507 88.3814 133.33 89.8847 134.166 93.4594C134.631 95.4519 133.422 97.6813 131.567 98.2075C129.221 98.8793 128.231 98.74 126.767 98.5569Z" fill="#26190C"/>
<path d="M166.68 93.0664L166.516 93.4546C168.018 94.1527 168.66 95.1088 168.099 96.4399L163.905 106.395C162.421 109.917 159.214 111.406 155.887 110.004C151.838 108.299 150.767 105.105 152.181 101.749L156.48 91.5448C157.041 90.2138 158.118 89.9819 159.667 90.569L159.83 90.1808L152.981 87.2952L152.817 87.6834C154.319 88.3814 154.961 89.3376 154.4 90.6686L150.417 100.125C147.952 105.976 150.272 109.304 154.126 110.928C159.169 112.987 163.167 111.635 165.024 107.226L169.347 96.9656C169.908 95.6345 170.985 95.4027 172.533 95.9898L172.697 95.6016L166.68 93.0664Z" fill="#26190C"/>
<path d="M191.612 119.417C191.677 118.886 191.798 116.351 190.459 114.137C189.213 112.077 187.697 110.673 186.136 110.069C184.798 109.542 183.425 109.598 182.189 110.345C180.567 111.326 179.639 113.048 179.979 117.624C180.13 119.502 180.561 122.019 180.155 124.022C179.911 125.19 179.383 126.177 178.353 126.8C177.452 127.344 176.487 127.435 175.542 127.093C174.555 126.74 173.608 125.871 172.772 124.548C170.723 121.216 171.352 118.127 174.523 115.753L174.29 115.367L169.758 118.107C169.794 119.562 169.901 122.24 171.105 124.465C172.149 126.366 173.582 127.574 175.127 128.152C176.936 128.817 178.865 128.635 180.487 127.654C181.62 126.969 182.075 125.745 182.246 124.341C182.482 122.405 182.108 120.099 181.999 118.407C181.764 114.295 182.434 112.378 183.927 111.475C184.674 111.024 185.546 110.954 186.378 111.224C187.333 111.526 188.228 112.25 188.851 113.28C191.357 117.426 188.55 120.635 187.095 122.007L187.328 122.394L191.612 119.417Z" fill="#26190C"/>
<path d="M194.634 154.892L196.126 137.292L190.967 136.161L190.919 136.73C194.768 137.63 194.912 140.209 194.839 142.136L194.603 144.924L177.033 143.435C175.594 143.313 175.096 141.7 175.176 140.046L174.756 140.011L174.027 148.616L174.447 148.651C174.646 147.007 175.403 145.562 176.842 145.684L194.412 147.173L194.181 149.901C193.928 151.813 193.352 154.331 189.406 154.57L189.358 155.14L194.634 154.892Z" fill="#26190C"/>
<path d="M178.404 180.229L178.085 179.953C176.957 181.166 175.849 181.481 174.757 180.536L166.585 173.471C163.694 170.972 163.268 167.461 165.63 164.73C168.503 161.407 171.872 161.375 174.626 163.757L183.002 170.999C184.095 171.943 183.983 173.04 182.946 174.331L183.265 174.606L188.125 168.984L187.807 168.708C186.679 169.921 185.571 170.236 184.478 169.292L176.716 162.581C171.913 158.428 168.031 159.606 165.296 162.77C161.779 166.93 161.83 171.15 165.449 174.279L173.871 181.561C174.964 182.505 174.851 183.601 173.814 184.893L174.133 185.168L178.404 180.229Z" fill="#26190C"/>
<path d="M152.691 194.13L160.684 192.231L160.588 191.821C158.37 192.247 157.73 192.551 157.436 191.291L153.395 174.003C153.101 172.743 153.809 172.732 155.986 172.131L155.89 171.721L149.327 173.255C141.147 175.012 139.674 181.536 141.051 187.426C142.311 192.817 146.89 195.486 152.691 194.13ZM148.134 174.893C148.903 174.744 150.334 174.657 151.218 174.605L155.45 192.713L152.998 193.193C148.038 193.92 144.461 191.573 143.085 185.683C141.982 180.966 141.962 176.119 148.134 174.893Z" fill="#26190C"/>
<path d="M117.096 189.917L116.933 190.305L123.782 193.191L123.945 192.803C122.444 192.105 121.802 191.149 122.362 189.818L128.554 175.121C129.115 173.79 130.248 173.581 131.796 174.168L131.96 173.78L125.11 170.894L124.947 171.283C126.449 171.981 127.035 172.913 126.475 174.245L120.283 188.941C119.722 190.272 118.645 190.504 117.096 189.917Z" fill="#26190C"/>
<path d="M113.486 158.44C114.902 160.783 115.323 163.166 114.933 165.371C114.438 168.448 112.429 171.174 109.468 172.965C106.738 174.615 103.922 175.192 101.371 174.694C98.8204 174.197 96.5187 172.6 94.8841 169.896C93.5298 167.656 93.0473 165.345 93.3446 163.162C93.773 160.09 95.6835 157.317 98.8508 155.403C101.194 153.986 103.602 153.374 105.842 153.532C108.898 153.759 111.664 155.427 113.486 158.44ZM96.544 170.897C97.7978 172.389 99.5445 173.127 101.48 173.187C104.009 173.241 106.88 172.173 109.365 170.178C111.177 168.696 112.45 166.731 113.001 164.675C113.643 162.248 113.304 159.71 111.791 157.671C110.412 155.798 108.263 155.093 105.9 155.255C103.444 155.439 100.795 156.583 98.6338 158.417C96.7863 159.956 95.5549 162.107 95.108 164.276C94.5946 166.625 95.0309 169.034 96.544 170.897Z" fill="#26190C"/>
<path d="M89.7269 127.019C89.3615 127.411 87.7744 129.39 87.5558 131.969C87.3525 134.368 87.7544 136.395 88.662 137.8C89.4349 139.013 90.5783 139.775 92.0175 139.897C93.9064 140.057 95.6693 139.21 98.0838 135.308C99.0657 133.7 100.196 131.41 101.702 130.028C102.586 129.227 103.593 128.738 104.793 128.84C105.842 128.929 106.676 129.422 107.239 130.255C107.83 131.121 108.086 132.381 107.984 133.942C107.683 137.843 105.359 139.971 101.398 140.028L101.36 140.477L106.637 140.925C107.463 139.726 108.951 137.497 109.284 134.989C109.557 132.838 109.108 131.018 108.197 129.642C107.125 128.041 105.457 127.054 103.568 126.894C102.249 126.782 101.161 127.505 100.198 128.541C98.8686 129.969 97.8161 132.054 96.9095 133.487C94.683 136.952 93.0146 138.109 91.2756 137.962C90.4061 137.888 89.6595 137.432 89.1458 136.724C88.5497 135.919 88.2514 134.806 88.3531 133.607C88.7623 128.78 92.9193 127.833 94.9038 127.579L94.942 127.129L89.7269 127.019Z" fill="#26190C"/>
</svg>
